<svg width="273" height="362" viewBox="0 0 273 362" fill="none" xmlns="http://www.w3.org/2000/svg">
<rect width="273" height="362" fill="#E5E5E5"/>
<rect width="273" height="362" transform="matrix(-1 0 0 1 273 0)" fill="white"/>
<path d="M136 18L113.324 85.3708H39.9433L99.3096 127.008L76.6337 194.379L136 152.742L195.366 194.379L172.69 127.008L232.057 85.3708H158.676L136 18Z" fill="#F7FC21"/>
<path d="M100 117.5C100 137.106 116.565 153 137 153C157.435 153 174 137.106 174 117.5C174 97.8939 157.435 82 137 82C116.565 82 100 97.8939 100 117.5Z" fill="#D91111"/>
<rect x="126" y="159" width="20" height="174" fill="#31A0B9"/>
</svg>
