<svg width="480" height="196" viewBox="0 0 480 196" fill="none" xmlns="http://www.w3.org/2000/svg">
<rect width="480" height="196" fill="#E5E5E5"/>
<ellipse cx="51" cy="39" rx="29" ry="39" fill="#DDD624"/>
<line x1="52.5" y1="78" x2="52.5" y2="196" stroke="black" stroke-width="3"/>
<rect x="167" y="78" width="313" height="118" fill="#119726"/>
<path d="M309.928 122.406H315.658V139.211C315.658 141.203 315.236 142.879 314.393 144.238C313.561 145.598 312.4 146.623 310.912 147.314C309.424 148.006 307.701 148.352 305.744 148.352C303.775 148.352 302.041 148.006 300.541 147.314C299.053 146.623 297.881 145.598 297.025 144.238C296.182 142.879 295.76 141.203 295.76 139.211V122.406H301.508V139.211C301.508 140.312 301.672 141.215 302 141.918C302.34 142.609 302.826 143.119 303.459 143.447C304.092 143.764 304.854 143.922 305.744 143.922C306.635 143.922 307.391 143.764 308.012 143.447C308.645 143.119 309.119 142.609 309.436 141.918C309.764 141.215 309.928 140.312 309.928 139.211V122.406ZM340.865 122.406V148H335.152L325.484 131.459V148H319.754V122.406H325.484L335.17 138.947V122.406H340.865ZM356.492 122.406V148H350.779V122.406H356.492ZM364.279 122.406V126.854H343.15V122.406H364.279Z" fill="#E5E5E5"/>
<line x1="51.5433" y1="115.84" x2="0.543249" y2="148.84" stroke="black" stroke-width="2"/>
<line x1="51.5077" y1="114.138" x2="107.508" y2="147.138" stroke="black" stroke-width="2"/>
<ellipse cx="39.5" cy="34.5" rx="2.5" ry="4.5" fill="black"/>
<ellipse cx="62.5" cy="34.5" rx="2.5" ry="4.5" fill="black"/>
<line x1="47.5" y1="54.5" x2="53.5" y2="54.5" stroke="black" stroke-width="3" stroke-linecap="round"/>
</svg>
